<svg xmlns="http://www.w3.org/2000/svg" xmlnsXlink="http://www.w3.org/1999/xlink" width="500" zoomAndPan="magnify" viewBox="0 0 375 374.999991" height="500" preserveAspectRatio="xMidYMid meet" version="1.0"><defs><g/><clipPath id="f321d79388"><path d="M 101.542969 37.5 L 273.292969 37.5 L 273.292969 172.5 L 101.542969 172.5 Z M 101.542969 37.5 " clip-rule="nonzero"/></clipPath></defs><g fill="#000000" fill-opacity="1"><g transform="translate(40.365742, 309.348508)"><g><path d="M 6.03125 -14.34375 C 7.65625 -14.34375 8.925781 -13.9375 9.84375 -13.125 C 10.769531 -12.3125 11.234375 -11.179688 11.234375 -9.734375 C 11.234375 -8.898438 11.066406 -8.125 10.734375 -7.40625 C 10.410156 -6.695312 9.882812 -6.113281 9.15625 -5.65625 C 8.425781 -5.207031 7.488281 -4.984375 6.34375 -4.984375 L 4.28125 -4.984375 L 4.28125 0 L 1.96875 0 L 1.96875 -14.34375 Z M 6.34375 -7.1875 C 6.976562 -7.1875 7.488281 -7.320312 7.875 -7.59375 C 8.257812 -7.863281 8.53125 -8.191406 8.6875 -8.578125 C 8.851562 -8.960938 8.9375 -9.332031 8.9375 -9.6875 C 8.9375 -10.289062 8.742188 -10.847656 8.359375 -11.359375 C 7.972656 -11.878906 7.320312 -12.140625 6.40625 -12.140625 L 4.28125 -12.140625 L 4.28125 -7.1875 Z M 6.34375 -7.1875 "/></g></g></g><g fill="#000000" fill-opacity="1"><g transform="translate(66.203214, 309.348508)"><g><path d="M 13.640625 0 L 11.328125 0 L 11.328125 -6.109375 L 4.28125 -6.109375 L 4.28125 0 L 1.96875 0 L 1.96875 -14.34375 L 4.28125 -14.34375 L 4.28125 -8.296875 L 11.328125 -8.296875 L 11.328125 -14.34375 L 13.640625 -14.34375 Z M 13.640625 0 "/></g></g></g><g fill="#000000" fill-opacity="1"><g transform="translate(95.607907, 309.348508)"><g><path d="M 1.078125 -7.15625 C 1.078125 -8.46875 1.40625 -9.679688 2.0625 -10.796875 C 2.71875 -11.921875 3.609375 -12.816406 4.734375 -13.484375 C 5.859375 -14.160156 7.082031 -14.5 8.40625 -14.5 C 9.726562 -14.5 10.945312 -14.160156 12.0625 -13.484375 C 13.1875 -12.816406 14.082031 -11.921875 14.75 -10.796875 C 15.425781 -9.671875 15.765625 -8.457031 15.765625 -7.15625 C 15.765625 -5.820312 15.429688 -4.597656 14.765625 -3.484375 C 14.097656 -2.367188 13.203125 -1.484375 12.078125 -0.828125 C 10.953125 -0.171875 9.726562 0.15625 8.40625 0.15625 C 7.082031 0.15625 5.859375 -0.164062 4.734375 -0.8125 C 3.609375 -1.46875 2.71875 -2.351562 2.0625 -3.46875 C 1.40625 -4.582031 1.078125 -5.8125 1.078125 -7.15625 Z M 3.453125 -7.15625 C 3.453125 -6.21875 3.671875 -5.359375 4.109375 -4.578125 C 4.554688 -3.804688 5.164062 -3.191406 5.9375 -2.734375 C 6.707031 -2.273438 7.550781 -2.046875 8.46875 -2.046875 C 9.375 -2.046875 10.203125 -2.269531 10.953125 -2.71875 C 11.703125 -3.175781 12.296875 -3.796875 12.734375 -4.578125 C 13.171875 -5.359375 13.390625 -6.21875 13.390625 -7.15625 C 13.390625 -8.082031 13.164062 -8.941406 12.71875 -9.734375 C 12.28125 -10.523438 11.675781 -11.148438 10.90625 -11.609375 C 10.144531 -12.066406 9.3125 -12.296875 8.40625 -12.296875 C 7.488281 -12.296875 6.648438 -12.066406 5.890625 -11.609375 C 5.140625 -11.148438 4.546875 -10.523438 4.109375 -9.734375 C 3.671875 -8.941406 3.453125 -8.082031 3.453125 -7.15625 Z M 3.453125 -7.15625 "/></g></g></g><g fill="#000000" fill-opacity="1"><g transform="translate(126.254207, 309.348508)"><g><path d="M 10.546875 -14.34375 L 10.546875 -12.140625 L 6.84375 -12.140625 L 6.84375 0 L 4.546875 0 L 4.546875 -12.140625 L 0.953125 -12.140625 L 0.953125 -14.34375 Z M 10.546875 -14.34375 "/></g></g></g><g fill="#000000" fill-opacity="1"><g transform="translate(151.539856, 309.348508)"><g><path d="M 1.078125 -7.15625 C 1.078125 -8.46875 1.40625 -9.679688 2.0625 -10.796875 C 2.71875 -11.921875 3.609375 -12.816406 4.734375 -13.484375 C 5.859375 -14.160156 7.082031 -14.5 8.40625 -14.5 C 9.726562 -14.5 10.945312 -14.160156 12.0625 -13.484375 C 13.1875 -12.816406 14.082031 -11.921875 14.75 -10.796875 C 15.425781 -9.671875 15.765625 -8.457031 15.765625 -7.15625 C 15.765625 -5.820312 15.429688 -4.597656 14.765625 -3.484375 C 14.097656 -2.367188 13.203125 -1.484375 12.078125 -0.828125 C 10.953125 -0.171875 9.726562 0.15625 8.40625 0.15625 C 7.082031 0.15625 5.859375 -0.164062 4.734375 -0.8125 C 3.609375 -1.46875 2.71875 -2.351562 2.0625 -3.46875 C 1.40625 -4.582031 1.078125 -5.8125 1.078125 -7.15625 Z M 3.453125 -7.15625 C 3.453125 -6.21875 3.671875 -5.359375 4.109375 -4.578125 C 4.554688 -3.804688 5.164062 -3.191406 5.9375 -2.734375 C 6.707031 -2.273438 7.550781 -2.046875 8.46875 -2.046875 C 9.375 -2.046875 10.203125 -2.269531 10.953125 -2.71875 C 11.703125 -3.175781 12.296875 -3.796875 12.734375 -4.578125 C 13.171875 -5.359375 13.390625 -6.21875 13.390625 -7.15625 C 13.390625 -8.082031 13.164062 -8.941406 12.71875 -9.734375 C 12.28125 -10.523438 11.675781 -11.148438 10.90625 -11.609375 C 10.144531 -12.066406 9.3125 -12.296875 8.40625 -12.296875 C 7.488281 -12.296875 6.648438 -12.066406 5.890625 -11.609375 C 5.140625 -11.148438 4.546875 -10.523438 4.109375 -9.734375 C 3.671875 -8.941406 3.453125 -8.082031 3.453125 -7.15625 Z M 3.453125 -7.15625 "/></g></g></g><g fill="#000000" fill-opacity="1"><g transform="translate(182.18616, 309.348508)"><g><path d="M 13.375 -1.3125 C 12.976562 -0.945312 12.289062 -0.609375 11.3125 -0.296875 C 10.34375 0.00390625 9.445312 0.15625 8.625 0.15625 C 7.113281 0.15625 5.785156 -0.144531 4.640625 -0.75 C 3.503906 -1.351562 2.625 -2.179688 2 -3.234375 C 1.382812 -4.296875 1.078125 -5.5 1.078125 -6.84375 C 1.078125 -8.457031 1.410156 -9.84375 2.078125 -11 C 2.742188 -12.15625 3.632812 -13.023438 4.75 -13.609375 C 5.875 -14.203125 7.109375 -14.5 8.453125 -14.5 C 9.273438 -14.5 10.054688 -14.40625 10.796875 -14.21875 C 11.546875 -14.03125 12.203125 -13.773438 12.765625 -13.453125 L 12.015625 -11.328125 C 11.617188 -11.566406 11.097656 -11.769531 10.453125 -11.9375 C 9.804688 -12.113281 9.238281 -12.203125 8.75 -12.203125 C 7.101562 -12.203125 5.804688 -11.75 4.859375 -10.84375 C 3.921875 -9.9375 3.453125 -8.664062 3.453125 -7.03125 C 3.453125 -6.0625 3.671875 -5.203125 4.109375 -4.453125 C 4.546875 -3.710938 5.160156 -3.140625 5.953125 -2.734375 C 6.753906 -2.328125 7.664062 -2.125 8.6875 -2.125 C 9.144531 -2.125 9.582031 -2.164062 10 -2.25 C 10.425781 -2.34375 10.785156 -2.46875 11.078125 -2.625 L 11.078125 -5 L 8.375 -5 L 8.375 -7.21875 L 13.375 -7.21875 Z M 13.375 -1.3125 "/></g></g></g><g fill="#000000" fill-opacity="1"><g transform="translate(210.881352, 309.348508)"><g><path d="M 9.8125 0 L 6.578125 -4.984375 L 4.28125 -4.984375 L 4.28125 0 L 1.96875 0 L 1.96875 -14.34375 L 6.015625 -14.34375 C 7.609375 -14.34375 8.890625 -13.9375 9.859375 -13.125 C 10.828125 -12.3125 11.3125 -11.179688 11.3125 -9.734375 C 11.3125 -8.847656 11.125 -8.023438 10.75 -7.265625 C 10.375 -6.515625 9.785156 -5.9375 8.984375 -5.53125 L 12.46875 0 Z M 4.28125 -7.1875 L 6.328125 -7.1875 C 7.242188 -7.1875 7.90625 -7.4375 8.3125 -7.9375 C 8.726562 -8.445312 8.9375 -9.019531 8.9375 -9.65625 C 8.9375 -10.019531 8.859375 -10.390625 8.703125 -10.765625 C 8.546875 -11.140625 8.273438 -11.460938 7.890625 -11.734375 C 7.515625 -12.003906 7.019531 -12.140625 6.40625 -12.140625 L 4.28125 -12.140625 Z M 4.28125 -7.1875 "/></g></g></g><g fill="#000000" fill-opacity="1"><g transform="translate(237.881621, 309.348508)"><g><path d="M 9.34375 -3.375 L 4.125 -3.375 L 2.734375 0 L 0.46875 0 L 6.8125 -14.9375 L 6.953125 -14.9375 L 13.296875 0 L 10.65625 0 Z M 8.578125 -5.34375 L 6.78125 -9.875 L 4.921875 -5.34375 Z M 8.578125 -5.34375 "/></g></g></g><g fill="#000000" fill-opacity="1"><g transform="translate(265.453425, 309.348508)"><g><path d="M 6.03125 -14.34375 C 7.65625 -14.34375 8.925781 -13.9375 9.84375 -13.125 C 10.769531 -12.3125 11.234375 -11.179688 11.234375 -9.734375 C 11.234375 -8.898438 11.066406 -8.125 10.734375 -7.40625 C 10.410156 -6.695312 9.882812 -6.113281 9.15625 -5.65625 C 8.425781 -5.207031 7.488281 -4.984375 6.34375 -4.984375 L 4.28125 -4.984375 L 4.28125 0 L 1.96875 0 L 1.96875 -14.34375 Z M 6.34375 -7.1875 C 6.976562 -7.1875 7.488281 -7.320312 7.875 -7.59375 C 8.257812 -7.863281 8.53125 -8.191406 8.6875 -8.578125 C 8.851562 -8.960938 8.9375 -9.332031 8.9375 -9.6875 C 8.9375 -10.289062 8.742188 -10.847656 8.359375 -11.359375 C 7.972656 -11.878906 7.320312 -12.140625 6.40625 -12.140625 L 4.28125 -12.140625 L 4.28125 -7.1875 Z M 6.34375 -7.1875 "/></g></g></g><g fill="#000000" fill-opacity="1"><g transform="translate(291.290887, 309.348508)"><g><path d="M 13.640625 0 L 11.328125 0 L 11.328125 -6.109375 L 4.28125 -6.109375 L 4.28125 0 L 1.96875 0 L 1.96875 -14.34375 L 4.28125 -14.34375 L 4.28125 -8.296875 L 11.328125 -8.296875 L 11.328125 -14.34375 L 13.640625 -14.34375 Z M 13.640625 0 "/></g></g></g><g fill="#000000" fill-opacity="1"><g transform="translate(320.695571, 309.348508)"><g><path d="M 13.421875 -14.34375 L 8.03125 -4.65625 L 8.03125 0 L 5.75 0 L 5.75 -4.65625 L 0.453125 -14.34375 L 3.265625 -14.34375 L 6.96875 -7.265625 L 10.59375 -14.34375 Z M 13.421875 -14.34375 "/></g></g></g><g fill="#000000" fill-opacity="1"><g transform="translate(13.871626, 252.923736)"><g><path d="M 2.375 0 L 2.28125 -1.734375 L 5.046875 -2.40625 C 5.046875 -2.625 5.050781 -2.953125 5.0625 -3.390625 C 5.082031 -3.828125 5.09375 -4.347656 5.09375 -4.953125 C 5.09375 -5.566406 5.097656 -6.226562 5.109375 -6.9375 C 5.128906 -7.65625 5.140625 -8.363281 5.140625 -9.0625 L 5.140625 -17.625 C 5.140625 -19.019531 5.128906 -20.191406 5.109375 -21.140625 C 5.097656 -22.097656 5.078125 -22.84375 5.046875 -23.375 C 5.023438 -23.90625 5 -24.234375 4.96875 -24.359375 L 2.140625 -25 L 2.28125 -26.734375 L 12.25 -26.734375 C 15.101562 -26.734375 17.28125 -26.175781 18.78125 -25.0625 C 20.28125 -23.957031 21.03125 -22.328125 21.03125 -20.171875 C 21.03125 -18.679688 20.617188 -17.351562 19.796875 -16.1875 C 18.984375 -15.019531 17.835938 -14.101562 16.359375 -13.4375 C 14.890625 -12.769531 13.21875 -12.4375 11.34375 -12.4375 L 8.421875 -12.4375 L 8.421875 -14.484375 L 11.015625 -14.484375 C 12.898438 -14.484375 14.363281 -14.953125 15.40625 -15.890625 C 16.457031 -16.828125 16.984375 -18.132812 16.984375 -19.8125 C 16.984375 -21.414062 16.523438 -22.632812 15.609375 -23.46875 C 14.703125 -24.300781 13.398438 -24.71875 11.703125 -24.71875 L 9.0625 -24.71875 C 9.03125 -24.664062 9.003906 -24.546875 8.984375 -24.359375 C 8.972656 -24.179688 8.96875 -23.878906 8.96875 -23.453125 C 8.96875 -23.023438 8.96875 -22.398438 8.96875 -21.578125 C 8.96875 -20.765625 8.96875 -19.671875 8.96875 -18.296875 L 8.96875 -9.0625 C 8.96875 -7.757812 8.972656 -6.664062 8.984375 -5.78125 C 9.003906 -4.90625 9.035156 -4.203125 9.078125 -3.671875 C 9.128906 -3.140625 9.171875 -2.71875 9.203125 -2.40625 L 11.890625 -1.734375 L 11.75 0 Z M 23.953125 0.453125 C 22.617188 0.453125 21.429688 0.203125 20.390625 -0.296875 C 19.359375 -0.796875 18.363281 -1.632812 17.40625 -2.8125 C 16.457031 -4 15.40625 -5.582031 14.25 -7.5625 L 11.15625 -13.203125 L 14.578125 -13.984375 L 19.484375 -6.734375 C 20.335938 -5.492188 21.101562 -4.5 21.78125 -3.75 C 22.46875 -3.007812 23.144531 -2.457031 23.8125 -2.09375 C 24.476562 -1.726562 25.207031 -1.472656 26 -1.328125 L 25.953125 0.265625 C 25.648438 0.328125 25.320312 0.375 24.96875 0.40625 C 24.625 0.4375 24.285156 0.453125 23.953125 0.453125 Z M 23.953125 0.453125 "/></g></g></g><g fill="#000000" fill-opacity="1"><g transform="translate(53.670152, 252.923736)"><g><path d="M 22.125 0.234375 C 21.25 0.140625 20.46875 0.078125 19.78125 0.046875 C 19.101562 0.015625 18.457031 0 17.84375 0 L 2.234375 0 L 2.09375 -1.734375 L 4.921875 -2.375 C 4.953125 -2.519531 4.976562 -2.863281 5 -3.40625 C 5.03125 -3.957031 5.050781 -4.703125 5.0625 -5.640625 C 5.082031 -6.585938 5.09375 -7.726562 5.09375 -9.0625 L 5.09375 -17.625 C 5.09375 -18.988281 5.082031 -20.144531 5.0625 -21.09375 C 5.050781 -22.050781 5.03125 -22.800781 5 -23.34375 C 4.976562 -23.894531 4.953125 -24.234375 4.921875 -24.359375 L 2.09375 -25 L 2.234375 -26.734375 L 16.84375 -26.734375 C 17.269531 -26.734375 17.722656 -26.734375 18.203125 -26.734375 C 18.691406 -26.734375 19.203125 -26.753906 19.734375 -26.796875 C 20.265625 -26.835938 20.820312 -26.875 21.40625 -26.90625 L 22.3125 -20.90625 L 20.265625 -20.578125 L 18.765625 -24.40625 C 18.515625 -24.46875 18.238281 -24.503906 17.9375 -24.515625 C 17.632812 -24.535156 17.316406 -24.546875 16.984375 -24.546875 L 11.84375 -24.546875 C 11.257812 -24.546875 10.75 -24.535156 10.3125 -24.515625 C 9.875 -24.503906 9.441406 -24.46875 9.015625 -24.40625 C 9.015625 -24.28125 9.003906 -23.9375 8.984375 -23.375 C 8.972656 -22.8125 8.957031 -22.164062 8.9375 -21.4375 C 8.925781 -20.71875 8.921875 -19.992188 8.921875 -19.265625 L 8.921875 -6.96875 C 8.921875 -6.363281 8.925781 -5.75 8.9375 -5.125 C 8.957031 -4.5 8.972656 -3.953125 8.984375 -3.484375 C 9.003906 -3.015625 9.015625 -2.671875 9.015625 -2.453125 C 9.472656 -2.421875 9.925781 -2.390625 10.375 -2.359375 C 10.832031 -2.335938 11.347656 -2.328125 11.921875 -2.328125 L 16.34375 -2.328125 C 17.007812 -2.328125 17.554688 -2.332031 17.984375 -2.34375 C 18.410156 -2.363281 18.742188 -2.382812 18.984375 -2.40625 C 19.222656 -2.4375 19.421875 -2.46875 19.578125 -2.5 L 21.953125 -6.828125 L 24 -6.421875 Z M 17.078125 -9.328125 L 16.53125 -12.4375 C 16.375 -12.488281 16.113281 -12.53125 15.75 -12.5625 C 15.382812 -12.59375 14.945312 -12.609375 14.4375 -12.609375 L 10.96875 -12.609375 C 10.570312 -12.609375 10.140625 -12.59375 9.671875 -12.5625 C 9.203125 -12.53125 8.722656 -12.5 8.234375 -12.46875 L 8.234375 -14.984375 C 8.722656 -14.953125 9.203125 -14.925781 9.671875 -14.90625 C 10.140625 -14.894531 10.570312 -14.890625 10.96875 -14.890625 L 14.4375 -14.890625 C 14.945312 -14.890625 15.382812 -14.894531 15.75 -14.90625 C 16.113281 -14.925781 16.375 -14.96875 16.53125 -15.03125 L 17.078125 -18.171875 L 19.03125 -18.171875 L 19.03125 -9.328125 Z M 17.078125 -9.328125 "/></g></g></g><g fill="#000000" fill-opacity="1"><g transform="translate(92.967931, 252.923736)"><g><path d="M 10.25 0.40625 C 8.90625 0.40625 7.535156 0.238281 6.140625 -0.09375 C 4.742188 -0.425781 3.59375 -0.847656 2.6875 -1.359375 L 2.453125 -7.234375 L 4.421875 -7.421875 L 5.6875 -3.375 C 6.414062 -2.882812 7.226562 -2.507812 8.125 -2.25 C 9.019531 -1.988281 9.953125 -1.859375 10.921875 -1.859375 C 12.410156 -1.859375 13.609375 -2.222656 14.515625 -2.953125 C 15.429688 -3.679688 15.890625 -4.671875 15.890625 -5.921875 C 15.890625 -6.984375 15.570312 -7.867188 14.9375 -8.578125 C 14.300781 -9.296875 13.472656 -9.921875 12.453125 -10.453125 C 11.429688 -10.984375 10.351562 -11.5 9.21875 -12 C 8.082031 -12.5 7.007812 -13.070312 6 -13.71875 C 5 -14.375 4.171875 -15.179688 3.515625 -16.140625 C 2.867188 -17.097656 2.546875 -18.289062 2.546875 -19.71875 C 2.546875 -21.175781 2.960938 -22.472656 3.796875 -23.609375 C 4.628906 -24.742188 5.773438 -25.625 7.234375 -26.25 C 8.691406 -26.875 10.363281 -27.1875 12.25 -27.1875 C 13.039062 -27.1875 13.804688 -27.144531 14.546875 -27.0625 C 15.285156 -26.988281 15.972656 -26.867188 16.609375 -26.703125 C 17.253906 -26.535156 17.832031 -26.347656 18.34375 -26.140625 L 18.71875 -20.4375 L 16.75 -20.265625 L 15.484375 -24.09375 C 14.515625 -24.695312 13.269531 -25 11.75 -25 C 10.195312 -25 8.957031 -24.617188 8.03125 -23.859375 C 7.101562 -23.097656 6.640625 -22.113281 6.640625 -20.90625 C 6.640625 -19.8125 6.96875 -18.890625 7.625 -18.140625 C 8.28125 -17.398438 9.113281 -16.753906 10.125 -16.203125 C 11.144531 -15.660156 12.222656 -15.140625 13.359375 -14.640625 C 14.503906 -14.140625 15.582031 -13.566406 16.59375 -12.921875 C 17.613281 -12.285156 18.445312 -11.503906 19.09375 -10.578125 C 19.75 -9.660156 20.078125 -8.519531 20.078125 -7.15625 C 20.078125 -5.695312 19.648438 -4.394531 18.796875 -3.25 C 17.953125 -2.113281 16.789062 -1.21875 15.3125 -0.5625 C 13.84375 0.0820312 12.15625 0.40625 10.25 0.40625 Z M 10.25 0.40625 "/></g></g></g><g fill="#000000" fill-opacity="1"><g transform="translate(128.760488, 252.923736)"><g><path d="M 23.578125 -26.90625 L 24.59375 -19.53125 L 22.578125 -19.3125 L 20.671875 -24.453125 C 20.429688 -24.515625 20.148438 -24.550781 19.828125 -24.5625 C 19.503906 -24.582031 19.222656 -24.59375 18.984375 -24.59375 L 17.34375 -24.59375 C 17.039062 -24.59375 16.628906 -24.59375 16.109375 -24.59375 C 15.597656 -24.59375 15.128906 -24.578125 14.703125 -24.546875 C 14.703125 -24.296875 14.691406 -23.722656 14.671875 -22.828125 C 14.660156 -21.929688 14.65625 -20.890625 14.65625 -19.703125 C 14.65625 -18.523438 14.65625 -17.390625 14.65625 -16.296875 L 14.65625 -10.15625 C 14.65625 -8.238281 14.671875 -6.570312 14.703125 -5.15625 C 14.734375 -3.75 14.75 -2.820312 14.75 -2.375 L 18.625 -1.828125 L 18.484375 0 L 6.875 0 L 6.78125 -1.828125 L 10.609375 -2.375 C 10.609375 -2.820312 10.625 -3.75 10.65625 -5.15625 C 10.6875 -6.570312 10.703125 -8.238281 10.703125 -10.15625 L 10.703125 -16.296875 C 10.703125 -17.390625 10.703125 -18.523438 10.703125 -19.703125 C 10.703125 -20.890625 10.703125 -21.929688 10.703125 -22.828125 C 10.703125 -23.722656 10.6875 -24.296875 10.65625 -24.546875 C 10.257812 -24.578125 9.800781 -24.59375 9.28125 -24.59375 C 8.769531 -24.59375 8.363281 -24.59375 8.0625 -24.59375 L 6.28125 -24.59375 C 6.039062 -24.59375 5.773438 -24.582031 5.484375 -24.5625 C 5.191406 -24.550781 4.910156 -24.515625 4.640625 -24.453125 L 2.78125 -19.265625 L 0.734375 -19.53125 L 1.734375 -26.90625 C 2.066406 -26.875 2.421875 -26.847656 2.796875 -26.828125 C 3.179688 -26.816406 3.5625 -26.796875 3.9375 -26.765625 C 4.3125 -26.742188 4.679688 -26.734375 5.046875 -26.734375 C 5.410156 -26.734375 5.773438 -26.734375 6.140625 -26.734375 L 19.171875 -26.734375 C 19.503906 -26.734375 19.859375 -26.734375 20.234375 -26.734375 C 20.617188 -26.734375 20.992188 -26.742188 21.359375 -26.765625 C 21.722656 -26.796875 22.09375 -26.816406 22.46875 -26.828125 C 22.851562 -26.847656 23.222656 -26.875 23.578125 -26.90625 Z M 23.578125 -26.90625 "/></g></g></g><g fill="#000000" fill-opacity="1"><g transform="translate(168.10379, 252.923736)"><g><path d="M 22.40625 -24.359375 L 13.0625 -9.921875 L 14.203125 -13.015625 L 14.203125 -8.703125 C 14.203125 -7.546875 14.207031 -6.578125 14.21875 -5.796875 C 14.238281 -5.023438 14.253906 -4.40625 14.265625 -3.9375 C 14.285156 -3.46875 14.3125 -3.109375 14.34375 -2.859375 C 14.375 -2.617188 14.390625 -2.457031 14.390625 -2.375 L 17.578125 -1.78125 L 17.484375 0 L 7.109375 0 L 6.96875 -1.78125 L 10.15625 -2.375 C 10.1875 -2.457031 10.21875 -2.617188 10.25 -2.859375 C 10.28125 -3.109375 10.300781 -3.46875 10.3125 -3.9375 C 10.320312 -4.40625 10.332031 -5.023438 10.34375 -5.796875 C 10.363281 -6.578125 10.375 -7.546875 10.375 -8.703125 L 10.375 -13.015625 L 11.296875 -9.921875 L 2.28125 -24.359375 L 0 -25 L 0.09375 -26.734375 L 9.515625 -26.734375 L 9.65625 -25 L 6.875 -24.359375 L 13.5625 -13.609375 L 12.9375 -13.609375 L 19.34375 -24.359375 L 16.15625 -25 L 16.296875 -26.734375 L 24.59375 -26.734375 L 24.671875 -25 Z M 22.40625 -24.359375 "/></g></g></g><g fill="#000000" fill-opacity="1"><g transform="translate(206.718734, 252.923736)"><g/></g></g><g fill="#000000" fill-opacity="1"><g transform="translate(229.446367, 252.923736)"><g><path d="M 2.234375 0 L 2.140625 -1.734375 L 4.921875 -2.375 C 4.984375 -2.519531 5.019531 -2.863281 5.03125 -3.40625 C 5.039062 -3.957031 5.050781 -4.703125 5.0625 -5.640625 C 5.082031 -6.585938 5.09375 -7.726562 5.09375 -9.0625 L 5.09375 -17.625 C 5.09375 -18.988281 5.082031 -20.144531 5.0625 -21.09375 C 5.050781 -22.050781 5.039062 -22.8125 5.03125 -23.375 C 5.019531 -23.9375 4.984375 -24.265625 4.921875 -24.359375 L 2.140625 -25 L 2.234375 -26.734375 L 11.921875 -26.734375 L 12.015625 -25 L 9.25 -24.359375 C 9.1875 -24.265625 9.128906 -23.96875 9.078125 -23.46875 C 9.035156 -22.96875 9.003906 -22.242188 8.984375 -21.296875 C 8.972656 -20.359375 8.96875 -19.132812 8.96875 -17.625 L 8.96875 -9.0625 C 8.96875 -7.601562 8.972656 -6.398438 8.984375 -5.453125 C 9.003906 -4.515625 9.035156 -3.796875 9.078125 -3.296875 C 9.128906 -2.796875 9.1875 -2.488281 9.25 -2.375 L 12.015625 -1.734375 L 11.921875 0 Z M 2.234375 0 "/></g></g></g><g fill="#000000" fill-opacity="1"><g transform="translate(257.54564, 252.923736)"><g><path d="M 2.375 0 L 2.28125 -1.734375 L 5.046875 -2.40625 C 5.046875 -2.625 5.050781 -2.953125 5.0625 -3.390625 C 5.082031 -3.828125 5.09375 -4.347656 5.09375 -4.953125 C 5.09375 -5.566406 5.097656 -6.226562 5.109375 -6.9375 C 5.128906 -7.65625 5.140625 -8.363281 5.140625 -9.0625 L 5.140625 -17.625 C 5.140625 -19.019531 5.128906 -20.191406 5.109375 -21.140625 C 5.097656 -22.097656 5.078125 -22.84375 5.046875 -23.375 C 5.023438 -23.90625 5 -24.234375 4.96875 -24.359375 L 2.140625 -25 L 2.28125 -26.734375 L 12.25 -26.734375 C 15.101562 -26.734375 17.28125 -26.175781 18.78125 -25.0625 C 20.28125 -23.957031 21.03125 -22.328125 21.03125 -20.171875 C 21.03125 -18.679688 20.617188 -17.351562 19.796875 -16.1875 C 18.984375 -15.019531 17.835938 -14.101562 16.359375 -13.4375 C 14.890625 -12.769531 13.21875 -12.4375 11.34375 -12.4375 L 8.421875 -12.4375 L 8.421875 -14.484375 L 11.015625 -14.484375 C 12.898438 -14.484375 14.363281 -14.953125 15.40625 -15.890625 C 16.457031 -16.828125 16.984375 -18.132812 16.984375 -19.8125 C 16.984375 -21.414062 16.523438 -22.632812 15.609375 -23.46875 C 14.703125 -24.300781 13.398438 -24.71875 11.703125 -24.71875 L 9.0625 -24.71875 C 9.03125 -24.664062 9.003906 -24.546875 8.984375 -24.359375 C 8.972656 -24.179688 8.96875 -23.878906 8.96875 -23.453125 C 8.96875 -23.023438 8.96875 -22.398438 8.96875 -21.578125 C 8.96875 -20.765625 8.96875 -19.671875 8.96875 -18.296875 L 8.96875 -9.0625 C 8.96875 -7.757812 8.972656 -6.664062 8.984375 -5.78125 C 9.003906 -4.90625 9.035156 -4.203125 9.078125 -3.671875 C 9.128906 -3.140625 9.171875 -2.71875 9.203125 -2.40625 L 11.890625 -1.734375 L 11.75 0 Z M 23.953125 0.453125 C 22.617188 0.453125 21.429688 0.203125 20.390625 -0.296875 C 19.359375 -0.796875 18.363281 -1.632812 17.40625 -2.8125 C 16.457031 -4 15.40625 -5.582031 14.25 -7.5625 L 11.15625 -13.203125 L 14.578125 -13.984375 L 19.484375 -6.734375 C 20.335938 -5.492188 21.101562 -4.5 21.78125 -3.75 C 22.46875 -3.007812 23.144531 -2.457031 23.8125 -2.09375 C 24.476562 -1.726562 25.207031 -1.472656 26 -1.328125 L 25.953125 0.265625 C 25.648438 0.328125 25.320312 0.375 24.96875 0.40625 C 24.625 0.4375 24.285156 0.453125 23.953125 0.453125 Z M 23.953125 0.453125 "/></g></g></g><g fill="#000000" fill-opacity="1"><g transform="translate(297.344166, 252.923736)"><g><path d="M 0.140625 0 L 0.046875 -1.734375 L 2.28125 -2.375 L 11.65625 -25.953125 L 14.296875 -27.546875 L 24.21875 -2.375 L 26.5 -1.734375 L 26.359375 0 L 17.171875 0 L 17.078125 -1.734375 L 19.859375 -2.375 L 17.171875 -9.109375 L 16.671875 -10.515625 L 11.703125 -22.90625 L 12.75 -23.5 L 8.015625 -10.515625 L 7.515625 -9.15625 L 5.09375 -2.375 L 7.875 -1.734375 L 7.78125 0 Z M 6.515625 -8.421875 L 6.515625 -10.84375 C 7.085938 -10.8125 7.875 -10.78125 8.875 -10.75 C 9.875 -10.71875 11.101562 -10.703125 12.5625 -10.703125 C 13.988281 -10.703125 15.207031 -10.71875 16.21875 -10.75 C 17.238281 -10.78125 18.023438 -10.8125 18.578125 -10.84375 L 18.578125 -8.421875 C 17.546875 -8.453125 16.519531 -8.472656 15.5 -8.484375 C 14.488281 -8.503906 13.507812 -8.515625 12.5625 -8.515625 C 11.65625 -8.515625 10.707031 -8.503906 9.71875 -8.484375 C 8.726562 -8.472656 7.660156 -8.453125 6.515625 -8.421875 Z M 6.515625 -8.421875 "/></g></g></g><g fill="#000000" fill-opacity="1"><g transform="translate(337.825528, 252.923736)"><g><path d="M 21.265625 0.234375 C 20.835938 0.171875 20.359375 0.125 19.828125 0.09375 C 19.296875 0.0625 18.769531 0.0351562 18.25 0.015625 C 17.738281 0.00390625 17.269531 0 16.84375 0 L 2.28125 0 L 2.1875 -1.734375 L 4.96875 -2.375 C 5 -2.519531 5.023438 -2.859375 5.046875 -3.390625 C 5.078125 -3.921875 5.097656 -4.671875 5.109375 -5.640625 C 5.128906 -6.617188 5.140625 -7.757812 5.140625 -9.0625 L 5.140625 -17.625 C 5.140625 -18.988281 5.140625 -20.140625 5.140625 -21.078125 C 5.140625 -22.023438 5.125 -22.769531 5.09375 -23.3125 C 5.0625 -23.851562 5.019531 -24.1875 4.96875 -24.3125 L 2.1875 -25 L 2.28125 -26.734375 L 12.984375 -26.734375 L 13.109375 -24.90625 L 9.328125 -24.3125 C 9.273438 -24.21875 9.234375 -23.921875 9.203125 -23.421875 C 9.171875 -22.921875 9.140625 -22.191406 9.109375 -21.234375 C 9.078125 -20.285156 9.0625 -19.082031 9.0625 -17.625 L 9.0625 -9.0625 C 9.0625 -7.476562 9.078125 -6.101562 9.109375 -4.9375 C 9.140625 -3.769531 9.171875 -3.019531 9.203125 -2.6875 C 9.617188 -2.625 10.046875 -2.582031 10.484375 -2.5625 C 10.929688 -2.550781 11.457031 -2.546875 12.0625 -2.546875 L 15.484375 -2.546875 C 16.179688 -2.546875 16.769531 -2.5625 17.25 -2.59375 C 17.738281 -2.625 18.226562 -2.671875 18.71875 -2.734375 L 21.078125 -7.1875 L 23.125 -6.734375 Z M 21.265625 0.234375 "/></g></g></g><g clip-path="url(#f321d79388)"><path fill="#000000" d="M 273.152344 144.015625 C 272.996094 138.777344 272.816406 133.542969 272.578125 128.3125 C 272.34375 123.078125 272.042969 117.847656 271.648438 112.621094 C 271.542969 110.160156 271.332031 107.710938 271.097656 105.261719 C 270.859375 102.8125 270.597656 100.367188 270.390625 97.914062 C 270.222656 95.25 270.140625 92.582031 270.074219 89.910156 C 270.007812 87.238281 269.960938 84.566406 269.859375 81.898438 C 269.667969 75.175781 268.003906 71.410156 264.894531 69.269531 C 261.78125 67.125 257.222656 66.613281 251.242188 66.390625 C 249.410156 64.082031 247.035156 62.523438 244.480469 61.226562 C 241.925781 59.925781 239.195312 58.894531 236.652344 57.640625 C 235.269531 56.945312 233.929688 56.148438 232.667969 55.242188 C 231.402344 54.335938 230.222656 53.320312 229.152344 52.195312 C 227.511719 50.28125 226.402344 47.929688 225.121094 45.738281 C 223.835938 43.546875 222.382812 41.507812 220.042969 40.210938 C 217.75 38.613281 215.269531 37.953125 212.699219 37.722656 C 210.132812 37.496094 207.476562 37.695312 204.839844 37.824219 C 202.542969 37.914062 200.25 38.035156 197.957031 38.1875 C 195.664062 38.335938 193.375 38.515625 191.09375 38.734375 C 185.765625 38.949219 182.039062 39.960938 178.921875 41.984375 C 175.800781 44.011719 173.289062 47.046875 170.378906 51.324219 C 168.46875 53.710938 166.648438 56.234375 164.679688 58.609375 C 162.710938 60.988281 160.585938 63.21875 158.070312 65.015625 C 155.207031 66.945312 151.96875 68.148438 148.601562 68.875 C 145.234375 69.601562 141.738281 69.851562 138.351562 69.875 C 140.667969 68.804688 141.878906 67.121094 142.105469 65.261719 C 142.328125 63.402344 141.5625 61.367188 139.9375 59.59375 C 138.789062 58.277344 137.324219 57.371094 135.730469 56.734375 C 134.132812 56.09375 132.40625 55.71875 130.738281 55.46875 C 125.117188 54.585938 120.871094 56.886719 119.433594 60.097656 C 117.996094 63.3125 119.367188 67.433594 124.976562 70.199219 C 120.875 70.289062 116.347656 70.957031 112.511719 72.699219 C 108.679688 74.445312 105.539062 77.269531 104.21875 81.6875 C 103.683594 83.476562 103.382812 85.3125 103.183594 87.164062 C 102.988281 89.019531 102.898438 90.886719 102.777344 92.742188 C 102.636719 96.644531 102.578125 100.550781 102.511719 104.457031 C 102.445312 108.363281 102.363281 112.265625 102.171875 116.171875 C 102.117188 118.675781 102.117188 121.183594 102.097656 123.691406 C 102.082031 126.199219 102.046875 128.703125 101.9375 131.210938 C 101.765625 133.679688 101.65625 136.15625 101.648438 138.628906 C 101.640625 141.097656 101.734375 143.570312 101.976562 146.039062 C 102.25 148.851562 102.582031 151.742188 103.21875 154.542969 C 103.855469 157.34375 104.792969 160.054688 106.273438 162.519531 C 109.226562 167.019531 114.726562 169.246094 120.707031 170.417969 C 126.6875 171.585938 133.144531 171.691406 138.015625 171.941406 C 141.917969 172.101562 145.820312 172.234375 149.722656 172.328125 C 153.628906 172.421875 157.535156 172.476562 161.4375 172.476562 C 162.558594 172.488281 163.683594 172.488281 164.804688 172.484375 C 165.921875 172.472656 167.046875 172.457031 168.167969 172.429688 C 168.800781 172.421875 169.433594 172.410156 170.066406 172.394531 C 170.703125 172.378906 171.335938 172.355469 171.96875 172.324219 C 172.386719 172.382812 172.855469 172.332031 173.21875 172.144531 C 173.582031 171.953125 173.839844 171.632812 173.839844 171.140625 C 173.800781 170.34375 173.308594 170.070312 172.683594 169.980469 C 172.0625 169.894531 171.316406 169.992188 170.773438 169.9375 C 170.035156 169.9375 169.300781 169.9375 168.5625 169.9375 C 167.824219 169.9375 167.085938 169.9375 166.347656 169.945312 C 163.558594 169.9375 160.769531 169.957031 157.980469 169.96875 C 155.191406 169.980469 152.398438 169.992188 149.609375 169.964844 C 143.5 169.71875 137.214844 169.867188 131.019531 169.464844 C 124.828125 169.0625 118.726562 168.109375 112.976562 165.660156 C 111.363281 164.886719 109.96875 163.765625 108.84375 162.414062 C 107.714844 161.058594 106.859375 159.476562 106.328125 157.78125 C 104.628906 152.761719 103.996094 147.566406 103.832031 142.324219 C 103.664062 137.082031 103.960938 131.796875 104.125 126.589844 C 104.113281 123 104.1875 119.414062 104.296875 115.824219 C 104.40625 112.238281 104.546875 108.652344 104.671875 105.066406 C 104.761719 101.597656 104.765625 98.128906 104.898438 94.671875 C 105.039062 91.214844 105.304688 87.761719 105.925781 84.320312 C 106.585938 80.277344 108.90625 77.484375 111.976562 75.65625 C 115.046875 73.828125 118.863281 72.957031 122.527344 72.75 C 123.933594 72.660156 125.34375 72.554688 126.75 72.425781 C 128.15625 72.292969 129.558594 72.128906 130.957031 71.917969 C 133.039062 72.238281 135.140625 72.4375 137.246094 72.5 C 139.347656 72.5625 141.457031 72.496094 143.554688 72.28125 C 151.511719 71.542969 156.605469 69.414062 160.839844 66 C 165.078125 62.585938 168.460938 57.882812 173 51.996094 C 174.546875 49.773438 176.28125 47.511719 178.335938 45.695312 C 180.390625 43.878906 182.761719 42.5 185.589844 42.050781 C 187.828125 41.691406 190.089844 41.480469 192.359375 41.328125 C 194.625 41.167969 196.898438 41.0625 199.160156 40.902344 C 201.398438 40.796875 203.644531 40.644531 205.890625 40.542969 C 208.132812 40.441406 210.382812 40.378906 212.625 40.445312 C 214.460938 40.59375 216.28125 41.167969 217.90625 42.085938 C 219.527344 43.007812 220.953125 44.269531 222.003906 45.792969 C 222.898438 47.214844 223.640625 48.734375 224.464844 50.203125 C 225.285156 51.671875 226.183594 53.089844 227.375 54.304688 C 228.40625 55.332031 229.519531 56.28125 230.691406 57.148438 C 231.863281 58.015625 233.097656 58.796875 234.382812 59.488281 C 236.597656 60.714844 239.007812 61.628906 241.332031 62.675781 C 243.660156 63.71875 245.910156 64.890625 247.8125 66.636719 C 246.511719 66.902344 245.148438 67.207031 243.867188 67.6875 C 242.589844 68.167969 241.394531 68.824219 240.421875 69.78125 C 238.632812 71.683594 238.292969 73.828125 238.945312 75.742188 C 239.589844 77.65625 241.222656 79.34375 243.367188 80.328125 C 244.234375 80.769531 245.175781 81.003906 246.136719 81.070312 C 247.09375 81.136719 248.070312 81.039062 249.003906 80.824219 C 251.628906 80.257812 253.125 78.386719 253.703125 76.132812 C 254.28125 73.882812 253.941406 71.253906 252.90625 69.175781 C 254.757812 69.34375 256.777344 69.453125 258.707031 69.824219 C 260.636719 70.199219 262.480469 70.835938 263.976562 72.0625 C 265.105469 73.109375 265.730469 74.480469 266.109375 75.953125 C 266.488281 77.429688 266.621094 79 266.777344 80.445312 C 266.90625 83.367188 266.9375 86.292969 266.984375 89.214844 C 267.027344 92.140625 267.089844 95.0625 267.273438 97.984375 C 267.402344 100.042969 267.621094 102.09375 267.835938 104.144531 C 268.042969 106.199219 268.238281 108.25 268.324219 110.3125 C 268.710938 116.253906 269.085938 122.199219 269.359375 128.152344 C 269.636719 134.101562 269.808594 140.054688 269.785156 146.015625 C 269.765625 146.992188 269.742188 147.964844 269.71875 148.9375 C 269.691406 149.914062 269.667969 150.882812 269.636719 151.859375 C 269.605469 153.449219 269.574219 155.121094 269.261719 156.707031 C 268.945312 158.289062 268.351562 159.78125 267.195312 161.007812 C 263.347656 165.191406 256.484375 166.683594 249.25 167.195312 C 242.015625 167.707031 234.414062 167.234375 229.089844 167.488281 C 217.355469 167.769531 208.492188 169.230469 199.949219 168.695312 C 191.402344 168.160156 183.171875 165.636719 172.703125 157.941406 C 169.429688 155.382812 166.304688 152.484375 163.664062 149.230469 C 161.019531 145.972656 158.855469 142.355469 157.503906 138.363281 C 156.40625 135.304688 155.707031 132.132812 155.347656 128.917969 C 154.988281 125.703125 154.972656 122.445312 155.242188 119.21875 C 155.46875 114.152344 156.558594 109.113281 158.410156 104.378906 C 160.261719 99.640625 162.886719 95.203125 166.171875 91.335938 C 170 86.972656 174.421875 83.90625 179.304688 81.847656 C 184.1875 79.792969 189.53125 78.738281 195.203125 78.398438 C 197.949219 78.238281 200.722656 78.15625 203.480469 78.292969 C 206.238281 78.425781 208.976562 78.773438 211.65625 79.46875 C 215.035156 80.546875 218.375 81.890625 221.539062 83.5625 C 224.703125 85.230469 227.691406 87.214844 230.363281 89.570312 C 232.230469 91.09375 233.835938 92.867188 235.183594 94.820312 C 236.53125 96.777344 237.621094 98.90625 238.464844 101.15625 C 239.765625 104.09375 240.699219 107.15625 241.378906 110.285156 C 242.058594 113.410156 242.480469 116.597656 242.75 119.78125 C 243.011719 123.605469 243.066406 127.585938 242.472656 131.410156 C 241.875 135.230469 240.628906 138.90625 238.289062 142.121094 C 236.632812 144.453125 234.808594 146.695312 232.808594 148.761719 C 230.8125 150.828125 228.644531 152.726562 226.292969 154.375 C 224.710938 155.425781 223.023438 156.289062 221.273438 157.023438 C 219.527344 157.753906 217.722656 158.351562 215.898438 158.863281 C 215.046875 159.101562 214.191406 159.351562 213.328125 159.546875 C 212.464844 159.746094 211.59375 159.890625 210.703125 159.929688 C 210.058594 160.046875 209.121094 159.992188 208.230469 160.011719 C 207.34375 160.03125 206.5 160.128906 206.046875 160.550781 C 205.546875 161.015625 205.484375 161.707031 205.722656 162.273438 C 205.957031 162.839844 206.488281 163.285156 207.175781 163.265625 C 208.3125 163.222656 209.453125 163.1875 210.59375 163.125 C 211.734375 163.0625 212.867188 162.964844 213.996094 162.796875 C 216.691406 162.328125 219.390625 161.699219 221.984375 160.789062 C 224.578125 159.882812 227.0625 158.695312 229.328125 157.117188 C 233.511719 153.957031 237.539062 150.167969 240.660156 145.8125 C 243.78125 141.460938 246.003906 136.550781 246.585938 131.152344 C 247.257812 124.5 247.023438 117.613281 245.707031 110.972656 C 244.390625 104.332031 241.992188 97.933594 238.324219 92.25 C 235.980469 89.078125 233.105469 86.394531 229.925781 84.113281 C 226.742188 81.828125 223.257812 79.945312 219.691406 78.371094 C 215.621094 76.351562 211.261719 75.234375 206.804688 74.71875 C 202.347656 74.203125 197.796875 74.296875 193.34375 74.6875 C 187.734375 75.058594 182.226562 76.351562 177.195312 78.625 C 172.15625 80.898438 167.589844 84.152344 163.851562 88.441406 C 158.351562 94.804688 154.679688 102.566406 152.898438 110.765625 C 151.117188 118.964844 151.222656 127.597656 153.28125 135.6875 C 154.476562 140.460938 156.617188 144.867188 159.40625 148.847656 C 162.191406 152.828125 165.625 156.382812 169.386719 159.460938 C 172.773438 162.105469 176.421875 164.488281 180.273438 166.464844 C 184.125 168.4375 188.175781 170.003906 192.375 171.003906 C 196.976562 172.070312 201.644531 172.242188 206.320312 172.078125 C 210.996094 171.917969 215.691406 171.425781 220.335938 171.164062 C 224.085938 170.890625 227.832031 170.824219 231.582031 170.828125 C 235.332031 170.832031 239.082031 170.910156 242.832031 170.933594 C 246.742188 170.917969 250.765625 170.789062 254.683594 170.175781 C 258.605469 169.566406 262.417969 168.472656 265.898438 166.539062 C 268.4375 165.089844 270.257812 163.074219 271.425781 160.703125 C 272.589844 158.335938 273.097656 155.621094 273.011719 152.777344 C 273.035156 151.320312 273.078125 149.859375 273.109375 148.398438 C 273.140625 146.9375 273.164062 145.476562 273.152344 144.015625 Z M 137.007812 67.875 C 135.316406 68.691406 133.195312 69.109375 131.859375 69.371094 C 130.574219 69.175781 129.285156 68.914062 128.042969 68.523438 C 126.800781 68.132812 125.601562 67.609375 124.503906 66.890625 C 122.675781 65.644531 121.664062 64.015625 121.667969 62.472656 C 121.675781 60.933594 122.699219 59.484375 124.949219 58.609375 C 126.855469 58.035156 128.910156 57.925781 130.914062 58.207031 C 132.921875 58.484375 134.878906 59.148438 136.605469 60.109375 C 137.285156 60.574219 137.917969 61.140625 138.4375 61.796875 C 138.953125 62.449219 139.355469 63.191406 139.578125 63.996094 C 139.960938 65.847656 138.703125 67.0625 137.011719 67.878906 Z M 251.285156 75.027344 C 250.992188 76.929688 249.78125 78.433594 247.171875 78.503906 C 245.828125 78.636719 244.136719 78.007812 242.917969 76.972656 C 241.703125 75.941406 240.960938 74.496094 241.523438 73.003906 C 241.992188 71.605469 243.4375 70.707031 245.089844 70.125 C 246.742188 69.542969 248.597656 69.28125 249.898438 69.160156 C 250.953125 70.828125 251.582031 73.128906 251.289062 75.027344 Z M 251.285156 75.027344 " fill-opacity="1" fill-rule="nonzero"/></g></svg>
